<?xml version="1.0" encoding="utf-8"?>
<!-- Generator: Adobe Illustrator 14.0.0, SVG Export Plug-In . SVG Version: 6.00 Build 43363)  -->
<!DOCTYPE svg PUBLIC "-//W3C//DTD SVG 1.1//EN" "http://www.w3.org/Graphics/SVG/1.1/DTD/svg11.dtd">
<svg version="1.1" id="Layer_1" xmlns="http://www.w3.org/2000/svg" xmlns:xlink="http://www.w3.org/1999/xlink" x="0px" y="0px"
	 width="841.89px" height="1190.551px" viewBox="0 0 841.89 1190.551" enable-background="new 0 0 841.89 1190.551"
	 xml:space="preserve">
<g id="Layer_x0020_1">
	<path d="M421.734,7.866c225.383,0,408.1,182.716,408.1,408.098c0,225.384-182.717,408.083-408.1,408.083
		c-225.381,0-408.082-182.699-408.082-408.083C13.652,190.582,196.353,7.866,421.734,7.866z"/>
	<path fill="#FFFFFF" d="M421.734,84.989c182.786,0,330.96,148.192,330.96,330.975c0,182.785-148.174,330.96-330.96,330.96
		c-182.783,0-330.958-148.175-330.958-330.96C90.775,233.181,238.951,84.989,421.734,84.989z"/>
	<g id="_219965408">
		<polygon points="155.217,486.244 151.316,392.522 180.594,298.8 689.244,298.8 692.169,486.244 600.399,486.244 598.448,468.669 
			584.776,452.087 563.3,441.341 548.653,439.391 528.153,443.292 513.505,452.087 504.726,461.841 499.849,472.587 
			498.874,486.244 328.988,486.244 328.014,469.662 320.21,455.014 303.611,441.341 290.915,437.439 266.514,437.439 
			248.939,444.268 232.34,458.916 226.488,477.464 225.514,486.244 		"/>
		<polygon fill="#FFFFFF" points="248.939,320.276 247.963,400.343 179.62,401.316 178.645,365.193 199.145,320.276 		"/>
		<rect x="262.611" y="324.193" fill="#FFFFFF" width="81.026" height="62.476"/>
		<rect x="543.776" y="323.203" fill="#FFFFFF" width="81.041" height="62.49"/>
		<rect x="449.079" y="322.227" fill="#FFFFFF" width="81.024" height="62.493"/>
		<rect x="354.381" y="323.203" fill="#FFFFFF" width="81.025" height="62.49"/>
		<path d="M278.217,449.145c21.038,0,38.091,17.052,38.091,38.091c0,21.021-17.053,38.073-38.091,38.073
			c-21.021,0-38.073-17.052-38.073-38.073C240.145,466.197,257.196,449.145,278.217,449.145z"/>
		<path d="M548.653,452.087c21.038,0,38.073,17.037,38.073,38.075c0,21.021-17.035,38.075-38.073,38.075
			c-21.021,0-38.074-17.054-38.074-38.075C510.579,469.124,527.631,452.087,548.653,452.087z"/>
	</g>
</g>
</svg>
