<?xml version="1.0" encoding="utf-8"?>
<!-- Generator: Adobe Illustrator 14.0.0, SVG Export Plug-In . SVG Version: 6.00 Build 43363)  -->
<!DOCTYPE svg PUBLIC "-//W3C//DTD SVG 1.1//EN" "http://www.w3.org/Graphics/SVG/1.1/DTD/svg11.dtd">
<svg version="1.1" id="Layer_1" xmlns="http://www.w3.org/2000/svg" xmlns:xlink="http://www.w3.org/1999/xlink" x="0px" y="0px"
	 width="841.89px" height="1190.551px" viewBox="0 0 841.89 1190.551" enable-background="new 0 0 841.89 1190.551"
	 xml:space="preserve">
<g id="Layer_x0020_1">
	<path d="M418.074,7.489c228.138,0,413.091,184.953,413.091,413.092c0,228.138-184.953,413.073-413.091,413.073
		C189.937,833.654,5,648.719,5,420.581C5,192.442,189.937,7.489,418.074,7.489z"/>
	<path fill="#FFFFFF" d="M418.074,86.354c184.58,0,334.208,149.648,334.208,334.227c0,184.578-149.629,334.208-334.208,334.208
		c-184.579,0-334.209-149.63-334.209-334.208C83.865,236.002,233.496,86.354,418.074,86.354z"/>
	<path d="M236.67,724.222C370.762,523.103,547.224,348.61,765.105,233.251c-9.85-14.774-41.402-63.089-64.074-77.881
		c-10.852-6.894-19.715-17.746-30.568-23.656c-12.82-6.895-19.717-11.835-23.654-13.807c-0.986-0.984,0-0.984-1.971-0.984
		C426.956,196.772,216.955,281.564,72.045,469.862l23.657,57.179l46.328,107.463l94.64,88.731V724.222z"/>
	<polygon fill="#FFFFFF" points="109.508,550.715 209.074,444.237 265.27,488.593 160.761,623.67 	"/>
	<polygon fill="#FFFFFF" points="350.061,419.596 481.179,302.267 447.658,267.759 304.702,372.267 	"/>
	<polygon fill="#FFFFFF" points="520.613,234.253 545.253,265.788 676.373,186.924 650.746,159.311 	"/>
</g>
</svg>
