<?xml version="1.0" encoding="utf-8"?>
<!-- Generator: Adobe Illustrator 14.0.0, SVG Export Plug-In . SVG Version: 6.00 Build 43363)  -->
<!DOCTYPE svg PUBLIC "-//W3C//DTD SVG 1.1//EN" "http://www.w3.org/Graphics/SVG/1.1/DTD/svg11.dtd">
<svg version="1.1" id="Layer_1" xmlns="http://www.w3.org/2000/svg" xmlns:xlink="http://www.w3.org/1999/xlink" x="0px" y="0px"
	 width="841.89px" height="1190.551px" viewBox="0 0 841.89 1190.551" enable-background="new 0 0 841.89 1190.551"
	 xml:space="preserve">
<g id="Layer_x0020_1">
	<path fill="#58A0DA" stroke="#4D4D4D" stroke-width="30" d="M420.86,1118.014C323.082,753.634,30.772,571.463,30.772,389.272
		C30.772,207.1,128.552,24.91,420.86,24.91c292.328,0,390.105,182.19,390.105,364.363
		C810.965,571.463,518.64,753.634,420.86,1118.014z"/>
	<defs>
		<filter id="Adobe_OpacityMaskFilter" filterUnits="userSpaceOnUse" x="47.994" y="30.804" width="551.582" height="261.788">
			<feColorMatrix  type="matrix" values="1 0 0 0 0  0 1 0 0 0  0 0 1 0 0  0 0 0 1 0"/>
		</filter>
	</defs>
	<mask maskUnits="userSpaceOnUse" x="47.994" y="30.804" width="551.582" height="261.788" id="id0">
		
			<linearGradient id="SVGID_1_" gradientUnits="userSpaceOnUse" x1="5263.6772" y1="4641.9531" x2="9067.7285" y2="-1807.075" gradientTransform="matrix(0.0283 0 0 -0.0283 120.1867 202.3746)">
			<stop  offset="0" style="stop-color:#FFFFFF"/>
			<stop  offset="1" style="stop-color:#FFFFFF;stop-opacity:0"/>
		</linearGradient>
		<rect x="36.942" y="20.797" fill="url(#SVGID_1_)" filter="url(#Adobe_OpacityMaskFilter)" width="572.279" height="282.025"/>
	</mask>
	<path mask="url(#id0)" fill="#FFFFFF" d="M204.719,75.351c-29.839,19.556-63.809,41.169-85.422,68.951
		c-14.414,18.527-30.885,37.055-41.168,54.554c-13.386,23.671-18.528,46.328-23.687,62.781
		c-7.198,21.631-10.283,31.913,1.028,30.885c52.499-8.226,74.11-85.421,172.918-145.116C263.386,126.82,329.27,93.878,396.163,87.69
		c110.137-11.312,222.33,9.273,200.718-26.754c-8.244-14.413-40.158-18.528-80.298-23.668
		c-93.648-13.386-241.868-8.243-311.865,37.054V75.351z"/>
	<defs>
		<filter id="Adobe_OpacityMaskFilter_1_" filterUnits="userSpaceOnUse" x="34.831" y="429.362" width="764.807" height="688.651">
			<feColorMatrix  type="matrix" values="1 0 0 0 0  0 1 0 0 0  0 0 1 0 0  0 0 0 1 0"/>
		</filter>
	</defs>
	<mask maskUnits="userSpaceOnUse" x="34.831" y="429.362" width="764.807" height="688.651" id="id2">
		
			<linearGradient id="SVGID_2_" gradientUnits="userSpaceOnUse" x1="10665.1094" y1="-32512.2324" x2="10296.1729" y2="-7856.4126" gradientTransform="matrix(0.0283 0 0 -0.0283 120.1867 202.3746)">
			<stop  offset="0" style="stop-color:#FFFFFF"/>
			<stop  offset="0.2196" style="stop-color:#FFFFFF;stop-opacity:0.502"/>
			<stop  offset="1" style="stop-color:#FFFFFF;stop-opacity:0"/>
		</linearGradient>
		
			<rect x="24.603" y="420.158" fill="url(#SVGID_2_)" filter="url(#Adobe_OpacityMaskFilter_1_)" width="785.336" height="708.142"/>
	</mask>
	<path mask="url(#id2)" fill="#2D70BF" d="M396.163,1038.728l24.697,79.286l21.612-69.996l30.886-90.58l38.083-61.753
		l108.081-165.72l102.922-136.891l63.807-107.052l13.388-53.524c-61.752,8.245-97.781,96.75-135.863,144.106
		c-36.028,44.253-62.781,82.336-108.08,150.277c-28.812,42.195-133.806,269.669-136.891,272.753c0-6.17-21.613-19.557-26.753-48.384
		c-3.085-1.029-29.857-57.64-29.857-57.64c-1.029,0-248.056-441.557-326.279-464.199c-7.199-2.056,23.686,60.726,27.8,73.083
		l75.138,115.277l128.646,177.031l55.583,88.524l41.167,79.251L396.163,1038.728z"/>
	<path fill="#58A0DA" d="M411.606,204.016c37.517,0,67.922,30.405,67.922,67.922c0,37.516-30.405,67.94-67.922,67.94
		c-37.516,0-67.94-30.424-67.94-67.94C343.666,234.42,374.09,204.016,411.606,204.016z"/>
	<path fill="#58A0DA" d="M410.578,522.05c37.516,0,67.922,30.424,67.922,67.94s-30.406,67.922-67.922,67.922
		c-37.516,0-67.94-30.406-67.94-67.922S373.062,522.05,410.578,522.05z"/>
	<path fill="#58A0DA" d="M410.578,361.489c37.516,0,67.922,30.407,67.922,67.922c0,37.517-30.406,67.942-67.922,67.942
		c-37.516,0-67.94-30.425-67.94-67.942C342.637,391.896,373.062,361.489,410.578,361.489z"/>
</g>
<g id="XMLID_1_">
	<g>
		<polygon fill="#FFFFFF" points="439.275,427.055 444.205,427.166 444.145,429.976 398.375,429.075 399.325,380.365 
			440.185,381.166 		"/>
		<path fill="#FFFFFF" d="M652.575,369.585c23.38-0.97,22.4,70.13-0.97,70.13l-82.78-1.96l61.36,58.46
			c14.609,14.59-33.12,54.54-47.74,38.95l-100.32-107.14l-37.92-0.86l-4.93-0.11l0.91-45.89l4.93,0.1l0.11-4.96l38.85-0.88
			l103.25-107.15c16.561-16.56,67.2,37.02,48.69,51.63l-67.19,52.6L652.575,369.585z"/>
		<path fill="#FFFFFF" d="M514.275,190.355c14.6-14.61,54.55,33.13,38.96,47.72l-107.15,100.34l-0.859,37.89l-4,0.09l-0.971,0.97
			l-0.069,3.8l-40.86-0.8v-0.08l-3.98-0.09l-0.88-0.88l-0.97-42.85l-107.15-103.25c-16.56-16.56,37.01-67.22,51.63-48.69l52.6,67.19
			l-2.92-83.75c-0.98-23.39,70.11-22.42,70.11,0.97l-1.94,82.78L514.275,190.355z"/>
		<path fill="#FFFFFF" d="M553.235,577.045c16.56,16.56-37.01,67.22-51.63,48.71l-52.601-67.21l2.921,83.77
			c0.979,23.37-70.13,22.4-70.13-0.97l1.95-82.8l-58.44,61.35c-14.61,14.62-54.55-33.1-38.96-47.71l107.15-100.34l0.92-40.83
			l2.97-0.07l0.97-0.97l0.02-0.9l45.77,0.9l0.97,0.97l0.97,42.85L553.235,577.045z"/>
		<polygon fill="#FFFFFF" points="445.225,376.305 445.115,381.266 440.185,381.166 440.254,377.365 441.225,376.396 		"/>
		<polygon points="399.325,380.285 399.325,380.365 395.435,380.285 395.345,380.195 		"/>
		<path fill="#FFFFFF" d="M399.325,380.365l-0.95,48.71l-3.91-0.08l-0.05,2.02l-39.88,0.9l-103.26,107.15
			c-16.56,16.56-67.21-37.02-48.71-51.63l67.22-52.6l-83.76,2.92c-23.39,0.99-22.41-70.12,0.98-70.12l82.78,1.95l-61.36-58.46
			c-14.61-14.59,33.12-54.54,47.72-38.95l100.33,107.14l38.87,0.88l0.09,0.09L399.325,380.365z"/>
		<polygon fill="#FFFFFF" points="398.375,429.075 398.355,429.976 397.385,430.945 394.415,431.016 394.465,428.996 		"/>
	</g>
	<g>
	</g>
</g>
</svg>
