<?xml version="1.0" encoding="utf-8"?>
<!-- Generator: Adobe Illustrator 14.0.0, SVG Export Plug-In . SVG Version: 6.00 Build 43363)  -->
<!DOCTYPE svg PUBLIC "-//W3C//DTD SVG 1.1//EN" "http://www.w3.org/Graphics/SVG/1.1/DTD/svg11.dtd">
<svg version="1.1" id="Layer_1" xmlns="http://www.w3.org/2000/svg" xmlns:xlink="http://www.w3.org/1999/xlink" x="0px" y="0px"
	 width="841.89px" height="1190.551px" viewBox="0 0 841.89 1190.551" enable-background="new 0 0 841.89 1190.551"
	 xml:space="preserve">
<g id="Layer_x0020_1">
	<path d="M418.383,10.244c226.093,0,409.386,183.294,409.386,409.385s-183.293,409.37-409.386,409.37
		c-226.091,0-409.368-183.278-409.368-409.37S192.292,10.244,418.383,10.244z"/>
	<path fill="#FFFFFF" d="M418.383,88.401c182.923,0,331.211,148.305,331.211,331.228S601.306,750.841,418.383,750.841
		c-182.923,0-331.211-148.288-331.211-331.211S235.46,88.401,418.383,88.401z"/>
	<path d="M436.948,492.907c31.27-34.199,9.777,46.888,70.348,44.936c23.444-0.976,18.564,20.516,40.055-7.809
		c11.731-14.659,46.906,18.562,52.762-24.437c0.978-5.857,72.302,12.706,85.009-1.953c17.586-19.539-20.517-48.839-10.756-73.276
		c4.898-13.683-17.586-12.69-15.617-44.936c0.976-26.39-5.874,4.879-16.611-12.708c2.928-7.809,19.539-23.443,4.882-48.856
		c-7.826-12.689-20.517,18.563-25.397-23.445c-3.921-29.316-66.444-3.904-65.467-27.347c-6.833-25.415,45.911-30.294,24.419-53.738
		c-21.491-23.461-17.586,9.761-45.911-26.39c-44.953-58.618-41.049-11.712-59.611-33.222
		c-11.714-12.689-22.468-33.206-50.793-20.516c-9.778,3.905-17.586,12.707-20.516,12.707c-7.826,22.468-5.873,3.904,1.953,23.444
		c2.928,8.802,0,13.683-1.953,19.54c-12.706,0-31.27-5.856-41.048-12.689c-18.562-13.683-40.054,5.857-50.81,16.61
		c-15.618,16.594-38.103,0.976-31.252,34.182c3.905,17.586-18.563,1.969-17.587,13.682c0,7.826,34.198,53.737,7.809,40.056
		c-3.905-1.953-6.833-2.929-9.762-3.905c-15.635-1.952-7.826,23.443-2.928,34.199c1.952,23.444-42.023,9.761-63.516,19.539
		c-48.857,20.516-3.905,45.929-33.223,47.88c-19.539,0.978,0.976,32.23-11.713,53.739c-6.85,10.737,6.833,26.372,8.785,47.863
		c0,3.905,1.952,4.898,3.903,9.778c50.81,24.421,30.294,16.611,31.271,17.588c31.27,0,37.125,11.712,50.808-3.922
		c33.223-37.126,107.475,49.834,107.475-6.833c0-23.444,2.929-8.785,4.881-10.736c7.809-8.802,26.373,105.505,26.373,159.244
		c0,7.825,1.969,45.929-1.954,48.856l63.517-0.977c0.977-9.777-71.325-137.769-6.85-207.124L436.948,492.907z"/>
</g>
</svg>
