<?xml version="1.0" encoding="utf-8"?>
<!-- Generator: Adobe Illustrator 14.0.0, SVG Export Plug-In . SVG Version: 6.00 Build 43363)  -->
<!DOCTYPE svg PUBLIC "-//W3C//DTD SVG 1.1//EN" "http://www.w3.org/Graphics/SVG/1.1/DTD/svg11.dtd">
<svg version="1.1" id="Layer_1" xmlns="http://www.w3.org/2000/svg" xmlns:xlink="http://www.w3.org/1999/xlink" x="0px" y="0px"
	 width="841.89px" height="1190.551px" viewBox="0 0 841.89 1190.551" enable-background="new 0 0 841.89 1190.551"
	 xml:space="preserve">
<g id="Layer_x0020_1">
	<path fill="#58A0DA" stroke="#4D4D4D" stroke-width="30" d="M422.602,1136.061c-99.75-371.72-397.948-557.563-397.948-743.422
		c0-185.843,99.749-371.704,397.948-371.704c298.215,0,397.965,185.861,397.965,371.704
		C820.567,578.498,522.351,764.341,422.602,1136.061z"/>
	<defs>
		<filter id="Adobe_OpacityMaskFilter" filterUnits="userSpaceOnUse" x="42.222" y="26.947" width="562.693" height="267.062">
			<feColorMatrix  type="matrix" values="1 0 0 0 0  0 1 0 0 0  0 0 1 0 0  0 0 0 1 0"/>
		</filter>
	</defs>
	<mask maskUnits="userSpaceOnUse" x="42.222" y="26.947" width="562.693" height="267.062" id="id0">
		
			<linearGradient id="SVGID_1_" gradientUnits="userSpaceOnUse" x1="5217.4331" y1="4749.5996" x2="9098.1211" y2="-1829.3507" gradientTransform="matrix(0.0283 0 0 -0.0283 120.1867 202.3746)">
			<stop  offset="0" style="stop-color:#FFFFFF"/>
			<stop  offset="1" style="stop-color:#FFFFFF;stop-opacity:0"/>
		</linearGradient>
		<rect x="30.948" y="16.738" fill="url(#SVGID_1_)" filter="url(#Adobe_OpacityMaskFilter)" width="583.808" height="287.708"/>
	</mask>
	<path mask="url(#id0)" fill="#FFFFFF" d="M202.104,72.391c-30.44,19.95-65.095,41.998-87.143,70.34
		c-14.705,18.901-31.507,37.801-41.998,55.654C59.309,222.531,54.063,245.646,48.8,262.43c-7.343,22.066-10.491,32.557,1.049,31.508
		c53.555-8.393,75.602-87.143,176.401-148.042c35.704-20.999,102.914-54.604,171.156-60.917
		c112.355-11.539,226.81,9.459,204.76-27.292c-8.407-14.705-40.967-18.901-81.915-24.146
		c-95.534-13.657-246.74-8.411-318.147,37.801V72.391z"/>
	<defs>
		<filter id="Adobe_OpacityMaskFilter_1_" filterUnits="userSpaceOnUse" x="28.794" y="433.536" width="780.215" height="702.525">
			<feColorMatrix  type="matrix" values="1 0 0 0 0  0 1 0 0 0  0 0 1 0 0  0 0 0 1 0"/>
		</filter>
	</defs>
	<mask maskUnits="userSpaceOnUse" x="28.794" y="433.536" width="780.215" height="702.525" id="id2">
		
			<linearGradient id="SVGID_2_" gradientUnits="userSpaceOnUse" x1="10727.6738" y1="-33153.0547" x2="10351.3057" y2="-8000.5933" gradientTransform="matrix(0.0283 0 0 -0.0283 120.1867 202.3746)">
			<stop  offset="0" style="stop-color:#FFFFFF"/>
			<stop  offset="0.2196" style="stop-color:#FFFFFF;stop-opacity:0.502"/>
			<stop  offset="1" style="stop-color:#FFFFFF;stop-opacity:0"/>
		</linearGradient>
		<rect x="18.36" y="424.146" fill="url(#SVGID_2_)" filter="url(#Adobe_OpacityMaskFilter_1_)" width="801.158" height="722.406"/>
	</mask>
	<path mask="url(#id2)" fill="#2D70BF" d="M397.406,1055.179l25.196,80.882l22.046-71.404l31.509-92.406l38.85-62.997
		l110.259-169.059L730.26,600.546l65.093-109.208l13.656-54.604c-62.998,8.41-99.749,98.7-138.601,147.01
		c-36.751,45.145-64.045,83.995-110.258,153.304c-29.391,43.047-136.501,275.102-139.647,278.249
		c0-6.296-22.048-19.951-27.294-49.359c-3.146-1.05-30.458-58.801-30.458-58.801c-1.049,0-253.053-450.454-332.853-473.551
		c-7.343-2.098,24.164,61.947,28.36,74.555l76.652,117.6L266.15,806.338l56.702,90.308l41.998,80.847L397.406,1055.179z"/>
	<path fill="#FFFFFF" d="M426.816,511.288c33.588-36.753,10.49,50.408,75.585,48.311c25.213-1.05,19.95,22.048,43.065-8.412
		c12.587-15.752,50.388,19.949,56.7-26.244c1.05-6.293,77.685,13.657,91.339-2.098c18.901-20.999-22.046-52.506-11.537-78.749
		c5.245-14.706-18.901-13.657-16.803-48.31c1.048-27.294-6.313,5.263-17.854-13.638c3.148-8.411,21.001-25.213,5.246-52.507
		c-8.39-13.655-22.046,19.952-27.292-25.194c-4.196-31.507-71.407-4.215-70.357-29.409c-7.343-27.293,49.356-32.54,26.244-57.752
		c-23.099-25.195-18.903,11.558-49.342-28.343c-48.31-62.996-44.095-12.605-64.046-35.703
		c-12.606-13.656-24.164-35.704-54.604-22.047c-10.51,4.195-18.901,13.637-22.048,13.637c-8.411,24.164-6.312,4.214,2.097,25.213
		c3.148,9.442,0,14.705-2.097,20.998c-13.656,0-33.606-6.293-44.097-13.654c-19.968-14.705-43.064,6.293-54.604,17.852
		c-16.803,17.851-40.949,1.049-33.605,36.752c4.196,17.853-19.95,2.098-18.901,14.705c0,8.392,36.752,57.752,8.392,43.047
		c-4.196-2.098-7.343-3.147-10.491-4.196c-16.802-2.099-8.393,25.195-3.146,36.753c2.097,25.195-45.145,10.489-68.26,20.998
		c-52.489,22.048-4.196,49.342-35.704,51.439c-20.999,1.049,1.067,34.654-12.588,57.751c-7.361,11.558,7.342,28.36,9.441,51.458
		c0,4.196,2.098,5.245,4.214,10.491c54.586,26.262,32.538,17.852,33.587,18.901c33.606,0,39.899,12.605,54.604-4.197
		c35.703-39.899,115.502,53.556,115.502-7.344c0-25.212,3.147-9.458,5.246-11.556c8.41-9.442,28.361,113.404,28.361,171.156
		c0,8.393,2.097,49.341-2.099,52.507l68.241-1.068c1.049-10.49-76.652-146.991-7.343-222.594L426.816,511.288z"/>
</g>
</svg>
