<?xml version="1.0" encoding="utf-8"?>
<!-- Generator: Adobe Illustrator 14.0.0, SVG Export Plug-In . SVG Version: 6.00 Build 43363)  -->
<!DOCTYPE svg PUBLIC "-//W3C//DTD SVG 1.1//EN" "http://www.w3.org/Graphics/SVG/1.1/DTD/svg11.dtd">
<svg version="1.1" id="Layer_1" xmlns="http://www.w3.org/2000/svg" xmlns:xlink="http://www.w3.org/1999/xlink" x="0px" y="0px"
	 width="841.89px" height="1190.551px" viewBox="0 0 841.89 1190.551" enable-background="new 0 0 841.89 1190.551"
	 xml:space="preserve">
<g id="Layer_x0020_1">
	<path fill="#58A0DA" stroke="#4D4D4D" stroke-width="30" d="M421.471,1134.53c-99.287-369.994-396.1-554.974-396.1-739.974
		c0-184.979,99.286-369.977,396.1-369.977c296.831,0,396.118,184.997,396.118,369.977
		C817.589,579.556,520.756,764.536,421.471,1134.53z"/>
	<defs>
		<filter id="Adobe_OpacityMaskFilter" filterUnits="userSpaceOnUse" x="42.857" y="30.565" width="560.082" height="265.822">
			<feColorMatrix  type="matrix" values="1 0 0 0 0  0 1 0 0 0  0 0 1 0 0  0 0 0 1 0"/>
		</filter>
	</defs>
	<mask maskUnits="userSpaceOnUse" x="42.857" y="30.565" width="560.082" height="265.822" id="id0">
		
			<linearGradient id="SVGID_1_" gradientUnits="userSpaceOnUse" x1="5202.854" y1="4628.6787" x2="9065.5146" y2="-1919.71" gradientTransform="matrix(0.0283 0 0 -0.0283 120.1867 202.3746)">
			<stop  offset="0" style="stop-color:#FFFFFF"/>
			<stop  offset="1" style="stop-color:#FFFFFF;stop-opacity:0"/>
		</linearGradient>
		<rect x="31.636" y="20.403" fill="url(#SVGID_1_)" filter="url(#Adobe_OpacityMaskFilter)" width="581.098" height="286.371"/>
	</mask>
	<path mask="url(#id0)" fill="#FFFFFF" d="M201.998,75.799c-30.299,19.857-64.793,41.801-86.739,70.013
		c-14.636,18.812-31.36,37.627-41.803,55.396c-13.592,24.032-18.812,47.039-24.052,63.747c-7.31,21.964-10.441,32.404,1.044,31.361
		c53.306-8.354,75.252-86.739,175.582-147.354c35.538-20.901,102.437-54.35,170.361-60.634
		c111.835-11.486,225.757,9.417,203.811-27.167c-8.371-14.635-40.775-18.812-81.534-24.032
		c-95.092-13.592-245.595-8.372-316.67,37.625V75.799z"/>
	<defs>
		<filter id="Adobe_OpacityMaskFilter_1_" filterUnits="userSpaceOnUse" x="29.492" y="435.267" width="776.593" height="699.263">
			<feColorMatrix  type="matrix" values="1 0 0 0 0  0 1 0 0 0  0 0 1 0 0  0 0 0 1 0"/>
		</filter>
	</defs>
	<mask maskUnits="userSpaceOnUse" x="29.492" y="435.267" width="776.593" height="699.263" id="id2">
		
			<linearGradient id="SVGID_2_" gradientUnits="userSpaceOnUse" x1="10687.502" y1="-33098.0625" x2="10312.8799" y2="-8062.2969" gradientTransform="matrix(0.0283 0 0 -0.0283 120.1867 202.3746)">
			<stop  offset="0" style="stop-color:#FFFFFF"/>
			<stop  offset="0.2196" style="stop-color:#FFFFFF;stop-opacity:0.502"/>
			<stop  offset="1" style="stop-color:#FFFFFF;stop-opacity:0"/>
		</linearGradient>
		
			<rect x="19.106" y="425.917" fill="url(#SVGID_2_)" filter="url(#Adobe_OpacityMaskFilter_1_)" width="797.438" height="719.055"/>
	</mask>
	<path mask="url(#id2)" fill="#2D70BF" d="M396.392,1054.022l25.079,80.508l21.944-71.074l31.361-91.977l38.671-62.705
		l109.745-168.273L727.701,601.5l64.792-108.701l13.593-54.351c-62.705,8.372-99.287,98.243-137.957,146.328
		c-36.583,44.936-63.749,83.604-109.746,152.593c-29.255,42.847-135.867,273.823-138.999,276.956
		c0-6.266-21.947-19.857-27.167-49.13c-3.133-1.044-30.317-58.527-30.317-58.527c-1.044,0-251.878-448.361-331.308-471.351
		c-7.309-2.089,24.053,61.659,28.229,74.205l76.296,117.058l130.628,179.757l56.439,89.889l41.804,80.473L396.392,1054.022z"/>
	<g id="_223676384">
		<path fill="#FFFFFF" d="M250.083,223.151c16.725,0,30.299,13.574,30.299,30.318c0,16.742-13.574,30.315-30.299,30.315
			c-16.742,0-30.317-13.573-30.317-30.315C219.766,236.726,233.341,223.151,250.083,223.151z"/>
		<path fill="#FFFFFF" d="M564.666,223.151c16.726,0,30.3,13.574,30.3,30.318c0,16.742-13.574,30.315-30.3,30.315
			c-16.743,0-30.316-13.573-30.316-30.315C534.349,236.726,547.922,223.151,564.666,223.151z"/>
		<rect x="394.305" y="221.063" fill="#FFFFFF" width="30.315" height="396.118"/>
		<path fill="#FFFFFF" d="M209.307,296.316h81.536l7.308,3.132l8.371,5.238l9.398,8.354l5.222,9.397l29.271,100.35
			c1.044,12.531-19.856,11.485-21.945,6.265l-3.151-9.415l-24.033-82.562h-15.681l40.758,149.459H287.71l-1.063,123.319
			c-3.133,12.55-28.21,10.461-28.21-1.043l-1.044-122.276h-15.681v120.188c0,1.043,0,7.309-5.221,9.396
			c-9.415,4.195-21.945,1.062-21.945-8.354l-2.088-121.231h-39.714l41.803-149.459h-12.548l-29.255,89.889
			c-4.195,11.485-26.141,2.088-21.946-11.504l2.088-7.311l33.432-97.197l6.282-7.327l8.354-6.265l8.353-3.132V296.316z"/>
		<path fill="#FFFFFF" d="M512.403,294.228h105.552l9.415,5.22l6.265,4.177l7.328,8.373l5.221,8.352l2.088,119.143
			c0,0-1.044,6.284-6.265,9.417c-6.282,4.175-16.724,1.043-16.724-9.417V337.075h-18.814l1.045,264.425
			c-3.134,9.399-6.266,16.727-17.77,16.727c-10.46,0-14.637-8.373-17.769-15.682l1.043-155.724l-18.812,1.043l2.088,154.681
			c-2.088,7.309-5.221,14.636-16.725,15.682c-12.531,1.043-16.707-7.327-17.75-14.638l2.088-266.514h-17.77l-1.044,101.374
			c-1.045,5.238-2.088,10.46-11.504,10.46c-10.442,0-11.503-6.265-12.548-10.46l1.045-117.055l5.237-9.396l5.222-7.311l7.309-7.327
			l5.239-2.089l8.354-3.131L512.403,294.228z"/>
	</g>
</g>
</svg>
