<?xml version="1.0" encoding="utf-8"?>
<!-- Generator: Adobe Illustrator 14.0.0, SVG Export Plug-In . SVG Version: 6.00 Build 43363)  -->
<!DOCTYPE svg PUBLIC "-//W3C//DTD SVG 1.1//EN" "http://www.w3.org/Graphics/SVG/1.1/DTD/svg11.dtd">
<svg version="1.1" id="Layer_1" xmlns="http://www.w3.org/2000/svg" xmlns:xlink="http://www.w3.org/1999/xlink" x="0px" y="0px"
	 width="841.89px" height="1190.551px" viewBox="0 0 841.89 1190.551" enable-background="new 0 0 841.89 1190.551"
	 xml:space="preserve">
<g id="Layer_x0020_1">
	<path d="M421.332,8c228.282,0,413.349,185.066,413.349,413.349S649.614,834.681,421.332,834.681
		C193.052,834.681,8,649.631,8,421.349S193.052,8,421.332,8z"/>
	<path fill="#FFFFFF" d="M421.332,86.114c185.136,0,335.216,150.098,335.216,335.234s-150.08,335.218-335.216,335.218
		c-185.135,0-335.216-150.081-335.216-335.218S236.197,86.114,421.332,86.114z"/>
	<path d="M205.775,331.362c53.519,0,96.904,40.284,96.904,89.987c0,49.686-43.385,89.97-96.904,89.97
		c-53.519,0-96.92-40.284-96.92-89.97C108.854,371.646,152.256,331.362,205.775,331.362z"/>
	<path d="M421.332,331.362c53.52,0,96.92,40.284,96.92,89.987c0,49.686-43.4,89.97-96.92,89.97
		c-53.519,0-96.902-40.284-96.902-89.97C324.43,371.646,367.813,331.362,421.332,331.362z"/>
	<path d="M631.968,331.362c53.519,0,96.902,40.284,96.902,89.987c0,49.686-43.384,89.97-96.902,89.97
		c-53.52,0-96.92-40.284-96.92-89.97C535.048,371.646,578.449,331.362,631.968,331.362z"/>
</g>
</svg>
