<?xml version="1.0" encoding="utf-8"?>
<!-- Generator: Adobe Illustrator 14.0.0, SVG Export Plug-In . SVG Version: 6.00 Build 43363)  -->
<!DOCTYPE svg PUBLIC "-//W3C//DTD SVG 1.1//EN" "http://www.w3.org/Graphics/SVG/1.1/DTD/svg11.dtd">
<svg version="1.1" id="Layer_1" xmlns="http://www.w3.org/2000/svg" xmlns:xlink="http://www.w3.org/1999/xlink" x="0px" y="0px"
	 width="841.89px" height="1190.551px" viewBox="0 0 841.89 1190.551" enable-background="new 0 0 841.89 1190.551"
	 xml:space="preserve">
<g id="Layer_x0020_1">
	<path d="M421.375,9.259c227.745,0,412.378,184.634,412.378,412.378S649.12,833.999,421.375,833.999S9.013,649.382,9.013,421.637
		S193.63,9.259,421.375,9.259z"/>
	<path fill="#FFFFFF" d="M421.375,87.989c184.261,0,333.632,149.387,333.632,333.648S605.636,755.27,421.375,755.27
		c-184.261,0-333.632-149.371-333.632-333.632S237.114,87.989,421.375,87.989z"/>
	<path d="M110.375,519.064l255.888,0.984l6.898-130.893l-23.631-16.733l-34.432-94.477c-2.966-6.9-8.867-18.699-14.767-18.699
		l-166.323-0.984l-11.817,25.582l165.341-4.916c4.916,0,10.833,4.916,12.799,9.832l29.515,82.681l-232.254-6.9
		c-1.966,7.882-6.898,34.448-4.933,59.063c1,14.749,1,31.481,2.967,46.248c2.95,23.631,8.85,42.314,16.732,47.247L110.375,519.064z"
		/>
	<path fill="#FFFFFF" d="M311.147,409.82c17.393,0,31.499,13.664,31.499,30.516s-14.106,30.498-31.499,30.498
		s-31.482-13.646-31.482-30.498S293.754,409.82,311.147,409.82z"/>
	<path d="M273.75,527.915v50.197c0,6.884,6.9,14.767,13.783,14.767h39.364c5.916,0,10.833-7.882,10.833-12.799v-52.165H273.75z"/>
	<polygon points="350.512,576.146 357.412,584.012 474.522,470.834 457.79,453.119 	"/>
	<polygon points="409.577,566.296 419.409,580.079 624.114,461.985 607.381,431.47 	"/>
	<polygon points="490.271,576.146 492.237,585.996 606.399,561.38 600.499,540.713 	"/>
	<path d="M498.155,319.275c12.493,0,22.632,9.698,22.632,21.649c0,11.969-10.139,21.649-22.632,21.649
		c-12.512,0-22.648-9.68-22.648-21.649C475.506,328.973,485.643,319.275,498.155,319.275z"/>
	<path d="M510.936,384.239c15.767,0,28.55,14.529,28.55,32.465c0,17.936-12.783,32.482-28.55,32.482
		c-15.765,0-28.531-14.546-28.531-32.482C482.405,398.768,495.171,384.239,510.936,384.239z"/>
	<path d="M659.546,371.44c17.393,0,31.497,20.258,31.497,45.264c0,25.004-14.104,45.281-31.497,45.281
		c-17.394,0-31.482-20.276-31.482-45.281C628.064,391.699,642.153,371.44,659.546,371.44z"/>
	<path d="M637.897,520.048c14.681,0,26.581,12.783,26.581,28.532c0,15.767-11.9,28.549-26.581,28.549s-26.565-12.783-26.565-28.549
		C611.332,532.831,623.216,520.048,637.897,520.048z"/>
	<path d="M701.876,483.634c16.852,0,30.499,14.545,30.499,32.482c0,17.936-13.647,32.464-30.499,32.464
		c-16.85,0-30.514-14.528-30.514-32.464C671.363,498.18,685.027,483.634,701.876,483.634z"/>
</g>
</svg>
