<?xml version="1.0" encoding="utf-8"?>
<!-- Generator: Adobe Illustrator 14.0.0, SVG Export Plug-In . SVG Version: 6.00 Build 43363)  -->
<!DOCTYPE svg PUBLIC "-//W3C//DTD SVG 1.1//EN" "http://www.w3.org/Graphics/SVG/1.1/DTD/svg11.dtd">
<svg version="1.1" id="Layer_1" xmlns="http://www.w3.org/2000/svg" xmlns:xlink="http://www.w3.org/1999/xlink" x="0px" y="0px"
	 width="841.89px" height="1190.551px" viewBox="0 0 841.89 1190.551" enable-background="new 0 0 841.89 1190.551"
	 xml:space="preserve">
<g id="Layer_x0020_1">
	<path fill="#58A0DA" stroke="#4D4D4D" stroke-width="30" d="M419.877,1132.318C320.697,762.718,24.199,577.935,24.199,393.134
		c0-184.782,99.18-369.583,395.678-369.583c296.515,0,395.695,184.8,395.695,369.583
		C815.572,577.935,519.056,762.718,419.877,1132.318z"/>
	<defs>
		<filter id="Adobe_OpacityMaskFilter" filterUnits="userSpaceOnUse" x="41.667" y="29.529" width="559.485" height="265.539">
			<feColorMatrix  type="matrix" values="1 0 0 0 0  0 1 0 0 0  0 0 1 0 0  0 0 0 1 0"/>
		</filter>
	</defs>
	<mask maskUnits="userSpaceOnUse" x="41.667" y="29.529" width="559.485" height="265.539" id="id0">
		
			<linearGradient id="SVGID_1_" gradientUnits="userSpaceOnUse" x1="5152.3862" y1="4666.7051" x2="9010.9365" y2="-1874.7147" gradientTransform="matrix(0.0283 0 0 -0.0283 120.1867 202.3746)">
			<stop  offset="0" style="stop-color:#FFFFFF"/>
			<stop  offset="1" style="stop-color:#FFFFFF;stop-opacity:0"/>
		</linearGradient>
		<rect x="30.458" y="19.378" fill="url(#SVGID_1_)" filter="url(#Adobe_OpacityMaskFilter)" width="580.477" height="286.067"/>
	</mask>
	<path mask="url(#id0)" fill="#FFFFFF" d="M200.638,74.715c-30.267,19.834-64.724,41.757-86.646,69.938
		c-14.622,18.792-31.328,37.586-41.758,55.336c-13.578,24.008-18.793,46.991-24.026,63.68c-7.301,21.94-10.431,32.37,1.042,31.327
		c53.25-8.344,75.173-86.645,175.396-147.195c35.5-20.88,102.327-54.293,170.181-60.57c111.714-11.474,225.516,9.406,203.592-27.138
		c-8.363-14.62-40.732-18.792-81.447-24.008c-94.991-13.577-245.334-8.362-316.333,37.586V74.715z"/>
	<path fill="#FFFFFF" d="M68.043,516.324l246.396,7.318l7.301-138.852l-25.052-17.75l-36.542-100.224
		c-3.129-7.319-9.388-19.835-15.664-19.835L53.44,245.938l-8.362,27.136l185.844-5.214c5.216,0,11.474,5.214,13.56,10.43
		l31.328,87.708l-240.119-7.32c-2.086,8.362-7.319,32.371-4.19,58.464c6.276,41.759,24.026,89.793,38.629,98.137L68.043,516.324z"/>
	<path fill="#58A0DA" d="M255.973,406.712c18.452,0,33.414,14.495,33.414,32.37c0,17.859-14.962,32.354-33.414,32.354
		c-18.451,0-33.413-14.495-33.413-32.354C222.56,421.207,237.522,406.712,255.973,406.712z"/>
	<path fill="#FFFFFF" d="M216.301,531.986v53.251c0,7.301,7.301,15.662,14.621,15.662h41.758c6.258,0,11.474-8.361,11.474-13.577
		v-55.336H216.301z"/>
	<polygon fill="#FFFFFF" points="297.731,583.149 305.05,591.495 429.282,471.436 411.532,452.643 	"/>
	<polygon fill="#FFFFFF" points="360.368,572.701 370.816,587.322 587.969,462.048 570.22,429.678 	"/>
	<polygon fill="#FFFFFF" points="445.99,583.149 448.076,593.581 569.178,567.487 562.919,545.564 	"/>
	<path fill="#FFFFFF" d="M454.333,310.661c13.271,0,24.009,10.287,24.009,22.965c0,12.696-10.737,22.965-24.009,22.965
		c-13.254,0-24.008-10.269-24.008-22.965C430.326,320.948,441.08,310.661,454.333,310.661z"/>
	<path fill="#FFFFFF" d="M467.911,379.557c16.725,0,30.267,15.43,30.267,34.457c0,19.027-13.542,34.457-30.267,34.457
		c-16.724,0-30.284-15.43-30.284-34.457C437.626,394.986,451.187,379.557,467.911,379.557z"/>
	<path fill="#FFFFFF" d="M625.555,365.998c18.45,0,33.414,21.49,33.414,48.016c0,26.526-14.964,48.034-33.414,48.034
		c-18.449,0-33.411-21.508-33.411-48.034C592.144,387.488,607.106,365.998,625.555,365.998z"/>
	<path fill="#FFFFFF" d="M602.588,523.642c15.559,0,28.183,13.559,28.183,30.266c0,16.725-12.624,30.286-28.183,30.286
		c-15.571,0-28.197-13.561-28.197-30.286C574.391,537.201,587.017,523.642,602.588,523.642z"/>
	<path fill="#FFFFFF" d="M670.444,485.013c17.876,0,32.37,15.431,32.37,34.457c0,19.027-14.494,34.439-32.37,34.439
		c-17.877,0-32.353-15.412-32.353-34.439C638.091,500.444,652.567,485.013,670.444,485.013z"/>
	<defs>
		<filter id="Adobe_OpacityMaskFilter_1_" filterUnits="userSpaceOnUse" x="28.316" y="433.799" width="775.763" height="698.52">
			<feColorMatrix  type="matrix" values="1 0 0 0 0  0 1 0 0 0  0 0 1 0 0  0 0 0 1 0"/>
		</filter>
	</defs>
	<mask maskUnits="userSpaceOnUse" x="28.316" y="433.799" width="775.763" height="698.52" id="id2">
		
			<linearGradient id="SVGID_2_" gradientUnits="userSpaceOnUse" x1="10631.1836" y1="-33019.8125" x2="10256.9609" y2="-8010.749" gradientTransform="matrix(0.0283 0 0 -0.0283 120.1867 202.3746)">
			<stop  offset="0" style="stop-color:#FFFFFF"/>
			<stop  offset="0.2196" style="stop-color:#FFFFFF;stop-opacity:0.502"/>
			<stop  offset="1" style="stop-color:#FFFFFF;stop-opacity:0"/>
		</linearGradient>
		
			<rect x="17.941" y="424.462" fill="url(#SVGID_2_)" filter="url(#Adobe_OpacityMaskFilter_1_)" width="796.587" height="718.288"/>
	</mask>
	<path mask="url(#id2)" fill="#2D70BF" d="M394.827,1051.896l25.05,80.423l21.921-70.998l31.328-91.879l38.63-62.639
		l109.628-168.094l104.395-138.852l64.725-108.586l13.576-54.292c-62.637,8.362-99.181,98.137-137.807,146.171
		c-36.544,44.888-63.685,83.518-109.631,152.431c-29.222,42.801-135.722,273.531-138.851,276.662
		c0-6.259-21.924-19.838-27.138-49.078c-3.129-1.044-30.285-58.465-30.285-58.465c-1.043,0-251.61-447.885-330.953-470.85
		c-7.302-2.085,24.025,61.594,28.198,74.129l76.215,116.931l130.49,179.567l56.379,89.791l41.758,80.387L394.827,1051.896z"/>
</g>
</svg>
