<?xml version="1.0" encoding="utf-8"?>
<!-- Generator: Adobe Illustrator 14.0.0, SVG Export Plug-In . SVG Version: 6.00 Build 43363)  -->
<!DOCTYPE svg PUBLIC "-//W3C//DTD SVG 1.1//EN" "http://www.w3.org/Graphics/SVG/1.1/DTD/svg11.dtd">
<svg version="1.1" id="Layer_1" xmlns="http://www.w3.org/2000/svg" xmlns:xlink="http://www.w3.org/1999/xlink" x="0px" y="0px"
	 width="841.89px" height="1190.551px" viewBox="0 0 841.89 1190.551" enable-background="new 0 0 841.89 1190.551"
	 xml:space="preserve">
<g id="Layer_x0020_1">
	<path d="M421.808,11.521c225.399,0,408.13,182.732,408.13,408.13c0,225.399-182.73,408.113-408.13,408.113
		c-225.398,0-408.113-182.714-408.113-408.113C13.695,194.253,196.41,11.521,421.808,11.521z"/>
	<path fill="#FFFFFF" d="M421.808,89.439c182.363,0,330.195,147.85,330.195,330.212c0,182.363-147.832,330.195-330.195,330.195
		c-182.362,0-330.195-147.832-330.195-330.195C91.613,237.29,239.446,89.439,421.808,89.439z"/>
	<path d="M444.224,391.396l42.852-0.972L590.33,283.278c16.559-16.559,67.195,37.013,48.689,51.626l-67.196,52.601l83.757-2.919
		c23.371-0.974,22.398,70.133-0.974,70.133l-82.783-1.964l61.357,58.456c14.614,14.597-33.12,54.546-47.733,38.959L485.128,443.023
		l-42.85-0.972l0.972-49.681L444.224,391.396z M397.463,394.316l-0.972-42.851L289.344,248.212
		c-16.561-16.561,37.013-67.213,51.627-48.69l52.6,67.197l-2.919-83.758c-0.974-23.388,70.115-22.415,70.115,0.974l-1.945,82.785
		l58.455-61.358c14.597-14.614,54.546,33.12,38.959,47.717L449.089,353.411l-0.973,42.852l-49.68-0.974L397.463,394.316z
		 M400.382,445.942l-42.852,0.974L254.277,554.062c-16.56,16.559-67.212-37.013-48.708-51.627l67.214-52.6l-83.757,2.919
		c-23.388,0.99-22.416-70.117,0.974-70.117l82.783,1.947l-61.357-58.456c-14.614-14.597,33.12-54.546,47.717-38.959l100.334,107.145
		l42.852,0.974l-0.974,49.681L400.382,445.942z M448.117,445.942l0.973,42.852l107.146,103.253
		c16.56,16.561-37.014,67.214-51.627,48.707l-52.6-67.214l2.919,83.774c0.974,23.372-70.133,22.398-70.133-0.974l1.947-82.801
		l-58.439,61.358c-14.613,14.613-54.546-33.104-38.959-47.717l107.146-100.334l0.972-42.852l49.681,0.974L448.117,445.942z"/>
	<rect x="397.463" y="393.344" stroke="#000000" stroke-width="20" width="49.681" height="51.626"/>
</g>
</svg>
