<?xml version="1.0" encoding="utf-8"?>
<!-- Generator: Adobe Illustrator 14.0.0, SVG Export Plug-In . SVG Version: 6.00 Build 43363)  -->
<!DOCTYPE svg PUBLIC "-//W3C//DTD SVG 1.1//EN" "http://www.w3.org/Graphics/SVG/1.1/DTD/svg11.dtd">
<svg version="1.1" id="Layer_1" xmlns="http://www.w3.org/2000/svg" xmlns:xlink="http://www.w3.org/1999/xlink" x="0px" y="0px"
	 width="841.89px" height="1190.551px" viewBox="0 0 841.89 1190.551" enable-background="new 0 0 841.89 1190.551"
	 xml:space="preserve">
<g id="Layer_x0020_1">
	<path d="M419.606,8c229.537,0,415.622,186.086,415.622,415.623c0,229.535-186.085,415.605-415.622,415.605S4,653.158,4,423.623
		C4,194.086,190.069,8,419.606,8z"/>
	<path fill="#FFFFFF" d="M419.606,87.348c185.71,0,336.257,150.563,336.257,336.275c0,185.711-150.547,336.257-336.257,336.257
		S83.348,609.334,83.348,423.623C83.348,237.912,233.896,87.348,419.606,87.348z"/>
	<polygon points="520.79,140.914 521.782,622.986 513.836,632.912 495.981,631.92 495.981,639.849 333.32,638.857 333.32,633.901 
		313.483,633.901 304.546,621.003 304.546,141.904 	"/>
	<rect x="398.777" y="638.857" width="31.747" height="90.268"/>
	<path fill="#FFFFFF" d="M413.659,174.643c33.967,0,61.494,27.542,61.494,61.51c0,33.95-27.526,61.493-61.494,61.493
		c-33.968,0-61.493-27.542-61.493-61.493C352.167,202.185,379.691,174.643,413.659,174.643z"/>
	<path fill="#FFFFFF" d="M412.668,464.287c33.968,0,61.493,27.527,61.493,61.494c0,33.968-27.525,61.492-61.493,61.492
		c-33.967,0-61.494-27.524-61.494-61.492C351.175,491.814,378.701,464.287,412.668,464.287z"/>
	<path fill="#FFFFFF" d="M412.668,318.473c33.968,0,61.493,27.526,61.493,61.494c0,33.967-27.525,61.51-61.493,61.51
		c-33.967,0-61.494-27.542-61.494-61.51C351.175,346,378.701,318.473,412.668,318.473z"/>
</g>
</svg>
