<?xml version="1.0" encoding="utf-8"?>
<!-- Generator: Adobe Illustrator 14.0.0, SVG Export Plug-In . SVG Version: 6.00 Build 43363)  -->
<!DOCTYPE svg PUBLIC "-//W3C//DTD SVG 1.1//EN" "http://www.w3.org/Graphics/SVG/1.1/DTD/svg11.dtd">
<svg version="1.1" id="Layer_1" xmlns="http://www.w3.org/2000/svg" xmlns:xlink="http://www.w3.org/1999/xlink" x="0px" y="0px"
	 width="841.89px" height="1190.551px" viewBox="0 0 841.89 1190.551" enable-background="new 0 0 841.89 1190.551"
	 xml:space="preserve">
<g id="Layer_x0020_1">
	<path d="M419.607,10.643c226.368,0,409.885,183.518,409.885,409.885S645.975,830.396,419.607,830.396S9.739,646.896,9.739,420.528
		S193.24,10.643,419.607,10.643z"/>
	<path fill="#FFFFFF" d="M419.607,88.896c183.146,0,331.616,148.486,331.616,331.632s-148.47,331.616-331.616,331.616
		c-183.147,0-331.616-148.47-331.616-331.616S236.46,88.896,419.607,88.896z"/>
	<path fill="none" stroke="#000000" stroke-width="60" d="M114.413,392.152c38.149,39.127,109.562,17.608,116.402-31.308
		c2.933-18.586,8.796-30.315,8.796-49.878c0,127.17,187.831,117.38,179.019,25.428c60.661,115.425,182.928,58.689,182.928-34.241
		c0,45.008,72.389,89.999,125.215,89.999"/>
	<path fill="none" stroke="#000000" stroke-width="60" d="M221.043,521.276c49.877,17.61,93.907-26.404,85.093-40.104
		c14.677,3.909,86.089,96.839,175.11,36.194"/>
</g>
</svg>
