<?xml version="1.0" encoding="utf-8"?>
<!-- Generator: Adobe Illustrator 14.0.0, SVG Export Plug-In . SVG Version: 6.00 Build 43363)  -->
<!DOCTYPE svg PUBLIC "-//W3C//DTD SVG 1.1//EN" "http://www.w3.org/Graphics/SVG/1.1/DTD/svg11.dtd">
<svg version="1.1" id="Layer_1" xmlns="http://www.w3.org/2000/svg" xmlns:xlink="http://www.w3.org/1999/xlink" x="0px" y="0px"
	 width="841.89px" height="1190.551px" viewBox="0 0 841.89 1190.551" enable-background="new 0 0 841.89 1190.551"
	 xml:space="preserve">
<g id="Layer_x0020_1">
	<path d="M420.869,9.521c225.814,0,408.887,183.071,408.887,408.886c0,225.816-183.072,408.869-408.887,408.869
		C195.053,827.275,12,644.223,12,418.407C12,192.591,195.053,9.521,420.869,9.521z"/>
	<path fill="#FFFFFF" d="M420.869,87.583c182.7,0,330.807,148.123,330.807,330.824c0,182.7-148.106,330.806-330.807,330.806
		c-182.7,0-330.806-148.106-330.806-330.806C90.062,235.706,238.169,87.583,420.869,87.583z"/>
	<g id="_230628736">
		<path d="M286.21,235.925c15.633,0,28.29,12.657,28.29,28.29c0,15.632-12.657,28.307-28.29,28.307
			c-15.633,0-28.306-12.675-28.306-28.307C257.904,248.582,270.577,235.925,286.21,235.925z"/>
		<path d="M580.91,235.925c15.634,0,28.306,12.657,28.306,28.29c0,15.632-12.672,28.307-28.306,28.307
			c-15.633,0-28.289-12.675-28.289-28.307C552.621,248.582,565.277,235.925,580.91,235.925z"/>
		<rect x="420.869" y="232.982" width="28.308" height="370.831"/>
		<path d="M248.154,303.246h76.111l6.825,2.925l7.817,4.893l8.773,7.798l4.893,8.792l27.315,93.678
			c0.975,11.698-18.541,10.725-20.49,5.85l-2.925-8.774l-22.44-77.104h-14.642l38.057,139.55h-36.107l-0.975,115.144
			c-2.925,11.716-26.356,9.766-26.356-0.975l-0.975-114.168H278.41v112.219c0,0.975,0,6.842-4.891,8.792
			c-8.774,3.898-20.49,0.975-20.49-7.817l-1.95-113.193h-37.082l39.032-139.55h-11.717l-27.315,83.929
			c-3.9,10.741-24.39,1.95-20.49-10.742l1.95-6.825l31.232-90.753l5.848-6.823l7.8-5.867l7.817-2.925V303.246z"/>
		<path d="M532.112,301.296h98.571l8.772,4.875l5.868,3.917l6.825,7.798l4.875,7.8l1.949,111.261c0,0-0.975,5.85-5.85,8.774
			c-5.85,3.9-15.615,0.975-15.615-8.774v-95.645H619.94l0.975,246.894c-1.949,8.774-5.85,15.617-16.59,15.617
			c-9.75,0-13.649-7.817-16.574-14.642l0.975-145.399l-17.564,0.975l1.95,144.425c-1.95,6.825-4.892,13.667-15.616,14.642
			c-11.716,0.975-15.615-6.843-16.59-13.667l1.949-248.844h-16.592l-0.975,94.669c-0.975,4.875-1.95,9.75-10.724,9.75
			c-9.767,0-10.741-5.85-11.717-9.75l0.976-109.293l4.874-8.792l4.875-6.823l6.841-6.842l4.875-1.95l7.8-2.925L532.112,301.296z"/>
	</g>
</g>
</svg>
